<svg width="183" height="68" viewBox="0 0 183 68" fill="none" xmlns="http://www.w3.org/2000/svg">
<path d="M33.4703 68C51.9555 68 66.9406 52.9728 66.9406 34.4359C66.9406 15.8989 51.9555 0.871765 33.4703 0.871765C14.9852 0.871765 0 15.8989 0 34.4359C0 52.9728 14.9852 68 33.4703 68Z" fill="#1170EA"/>
<mask id="mask0_7_80" style="mask-type:luminance" maskUnits="userSpaceOnUse" x="10" y="13" width="47" height="43">
<path d="M56.7191 13.6342H10.2214V55.2376H56.7191V13.6342Z" fill="white"/>
</mask>
<g mask="url(#mask0_7_80)">
<path d="M18.8309 13.6342H12.0179C11.0258 13.6342 10.2214 14.4399 10.2214 15.4338V42.9208C10.2214 43.9145 11.0258 44.7204 12.0179 44.7204H18.8309C19.8231 44.7204 20.6274 43.9145 20.6274 42.9208V15.4338C20.6274 14.4399 19.8231 13.6342 18.8309 13.6342Z" fill="#DBE9FE"/>
<path d="M29.3297 44.7205H22.4239C21.4317 44.7205 20.6274 45.526 20.6274 46.5198V53.438C20.6274 54.4318 21.4317 55.2378 22.4239 55.2378H29.3297C30.3219 55.2378 31.1263 54.4318 31.1263 53.438V46.5198C31.1263 45.526 30.3219 44.7205 29.3297 44.7205Z" fill="#DBE9FE"/>
<path d="M29.3297 23.8721H22.4239C21.4317 23.8721 20.6274 24.6778 20.6274 25.6718V32.5897C20.6274 33.5836 21.4317 34.3893 22.4239 34.3893H29.3297C30.3219 34.3893 31.1263 33.5836 31.1263 32.5897V25.6718C31.1263 24.6778 30.3219 23.8721 29.3297 23.8721Z" fill="#DBE9FE"/>
<path d="M20.581 43.4639L20.6977 43.7562C20.8043 44.0234 20.9696 44.2628 21.1812 44.4572C21.3347 44.5984 21.528 44.6882 21.7346 44.7152L21.9746 44.7466L20.6739 46.07L20.6097 45.6197C20.5912 45.4902 20.5253 45.3721 20.4249 45.288L20.3579 45.2322C20.1363 45.0474 19.8871 44.8983 19.6193 44.7911L19.3267 44.6738L20.581 43.4639Z" fill="#DBE9FE"/>
<path d="M18.955 33.7421L21.1348 32.1556L22.3463 34.3893L21.9027 34.5046C21.3806 34.6402 20.9266 34.9636 20.6274 35.4132L18.955 33.7421Z" fill="#DBE9FE"/>
<path d="M21.304 26.0129L18.8621 24.8722L20.6273 22.6344L20.6408 22.6629C20.9409 23.2962 21.5211 23.7511 22.2068 23.8909L21.304 26.0129Z" fill="#DBE9FE"/>
<path d="M44.6598 34.6686H37.7541C36.7619 34.6686 35.9576 35.4743 35.9576 36.4682V53.2518C35.9576 54.2457 36.7619 55.0517 37.7541 55.0517H44.6598C45.6522 55.0517 46.4564 54.2457 46.4564 53.2518V36.4682C46.4564 35.4743 45.6522 34.6686 44.6598 34.6686Z" fill="#DBE9FE"/>
<path d="M47.7209 34.912L47.3883 35.0026C47.0906 35.0836 46.8163 35.2336 46.5872 35.4404C46.4216 35.5898 46.3086 35.7883 46.2638 36.0069L46.2095 36.2728L44.8633 34.6698L45.3719 34.6585C45.5075 34.6556 45.637 34.6004 45.7331 34.5046L45.8126 34.425C46.0265 34.212 46.2038 33.9651 46.3373 33.6944L46.4951 33.3751L47.7209 34.912Z" fill="#DBE9FE"/>
<path d="M54.88 24.7098H47.9743C46.9819 24.7098 46.1777 25.5156 46.1777 26.5094V33.4274C46.1777 34.4213 46.9819 35.227 47.9743 35.227H54.88C55.8724 35.227 56.6765 34.4213 56.6765 33.4274V26.5094C56.6765 25.5156 55.8724 24.7098 54.88 24.7098Z" fill="#DBE9FE"/>
</g>
<path d="M84.7729 30.5128V6.52105H89.537V30.5128H84.7729ZM76.9835 10.2175V5.99797H97.3265V10.2175H76.9835ZM103.822 30.8616C102.13 30.8616 100.6 30.478 99.2317 29.7108C97.8872 28.9204 96.8092 27.8626 95.9976 26.5375C95.2096 25.1891 94.8153 23.6896 94.8153 22.039C94.8153 20.3884 95.2096 18.9122 95.9976 17.6103C96.7857 16.2852 97.8637 15.239 99.2317 14.4718C100.6 13.6814 102.118 13.2862 103.787 13.2862C105.503 13.2862 107.033 13.6814 108.377 14.4718C109.745 15.239 110.823 16.2852 111.611 17.6103C112.399 18.9122 112.794 20.3884 112.794 22.039C112.794 23.6896 112.399 25.1891 111.611 26.5375C110.823 27.8626 109.745 28.9204 108.377 29.7108C107.033 30.478 105.514 30.8616 103.822 30.8616ZM103.787 26.6072C104.645 26.6072 105.398 26.4212 106.047 26.0493C106.72 25.654 107.23 25.1194 107.577 24.4452C107.948 23.7477 108.134 22.9573 108.134 22.0739C108.134 21.1904 107.948 20.4117 107.577 19.7375C107.207 19.0633 106.696 18.5402 106.047 18.1682C105.398 17.773 104.645 17.5754 103.787 17.5754C102.953 17.5754 102.211 17.773 101.562 18.1682C100.913 18.5402 100.402 19.0633 100.031 19.7375C99.6607 20.4117 99.4751 21.1904 99.4751 22.0739C99.4751 22.9573 99.6607 23.7477 100.031 24.4452C100.402 25.1194 100.913 25.654 101.562 26.0493C102.211 26.4212 102.953 26.6072 103.787 26.6072ZM119.691 20.2605V16.5641H125.359C126.518 16.5641 127.411 16.2735 128.037 15.6923C128.686 15.0879 129.01 14.2626 129.01 13.2164C129.01 12.2633 128.686 11.4728 128.037 10.8452C127.411 10.1942 126.518 9.86874 125.359 9.86874H119.691V5.99797H125.776C127.352 5.99797 128.732 6.31182 129.914 6.93951C131.12 7.54397 132.047 8.38089 132.696 9.45028C133.368 10.5197 133.705 11.7518 133.705 13.1467C133.705 14.5881 133.368 15.8435 132.696 16.9128C132.047 17.959 131.12 18.7843 129.914 19.3887C128.709 19.9699 127.306 20.2605 125.707 20.2605H119.691ZM116.213 30.5128V5.99797H120.943V30.5128H116.213ZM129.567 30.5128L121.499 19.9118L125.846 18.5518L135.304 30.5128H129.567ZM145.052 30.8616C143.29 30.8616 141.725 30.4896 140.357 29.7457C138.989 28.9785 137.9 27.9323 137.088 26.6072C136.3 25.2821 135.906 23.7709 135.906 22.0739C135.906 20.4 136.289 18.9122 137.054 17.6103C137.842 16.2852 138.908 15.239 140.253 14.4718C141.597 13.6814 143.093 13.2862 144.739 13.2862C146.361 13.2862 147.787 13.6581 149.016 14.4021C150.268 15.1227 151.241 16.1224 151.937 17.401C152.655 18.6564 153.015 20.0862 153.015 21.6903C153.015 21.9925 152.992 22.3063 152.945 22.6318C152.922 22.934 152.864 23.2827 152.772 23.678L138.653 23.7128V20.2954L150.65 20.2605L148.807 21.6903C148.761 20.6906 148.576 19.8537 148.251 19.1795C147.95 18.5053 147.498 17.9939 146.895 17.6452C146.315 17.2732 145.596 17.0872 144.739 17.0872C143.835 17.0872 143.046 17.2964 142.374 17.7149C141.702 18.1101 141.18 18.6797 140.809 19.4236C140.461 20.1443 140.288 21.0045 140.288 22.0041C140.288 23.027 140.473 23.9221 140.844 24.6893C141.238 25.4332 141.795 26.0144 142.513 26.4328C143.232 26.8281 144.066 27.0257 145.017 27.0257C145.874 27.0257 146.651 26.8862 147.347 26.6072C148.042 26.305 148.645 25.8633 149.155 25.2821L151.833 27.9672C151.021 28.9204 150.024 29.6411 148.842 30.1293C147.683 30.6175 146.42 30.8616 145.052 30.8616ZM162.857 30.8616C161.326 30.8616 159.947 30.478 158.718 29.7108C157.49 28.9436 156.528 27.8975 155.832 26.5723C155.137 25.2472 154.789 23.7594 154.789 22.1087C154.789 20.4349 155.137 18.9354 155.832 17.6103C156.528 16.2852 157.49 15.239 158.718 14.4718C159.947 13.7046 161.326 13.321 162.857 13.321C164.062 13.321 165.14 13.5652 166.091 14.0534C167.041 14.5416 167.795 15.2274 168.351 16.1108C168.931 16.9709 169.244 17.9474 169.29 19.04V25.1077C169.244 26.2236 168.931 27.2117 168.351 28.0718C167.795 28.932 167.041 29.6178 166.091 30.1293C165.14 30.6175 164.062 30.8616 162.857 30.8616ZM163.691 26.6421C164.966 26.6421 165.998 26.2236 166.786 25.3867C167.575 24.5265 167.968 23.4222 167.968 22.0739C167.968 21.1904 167.783 20.4117 167.412 19.7375C167.064 19.04 166.566 18.5053 165.917 18.1334C165.291 17.7381 164.549 17.5405 163.691 17.5405C162.857 17.5405 162.115 17.7381 161.466 18.1334C160.84 18.5053 160.341 19.04 159.97 19.7375C159.623 20.4117 159.449 21.1904 159.449 22.0739C159.449 22.9805 159.623 23.7826 159.97 24.48C160.341 25.1542 160.84 25.6889 161.466 26.0841C162.115 26.4561 162.857 26.6421 163.691 26.6421ZM167.725 30.5128V25.9795L168.455 21.8646L167.725 17.8195V13.6698H172.246V30.5128H167.725ZM176.276 30.5128V5.30054H180.831V30.5128H176.276Z" fill="#F7F6F5"/>
<path d="M123.246 63.641L111.84 51.0872C110.982 50.1339 110.345 49.2272 109.928 48.3672C109.51 47.4836 109.302 46.519 109.302 45.4728C109.302 44.2405 109.603 43.1132 110.206 42.0902C110.832 41.0673 111.678 40.2537 112.745 39.6492C113.834 39.0448 115.074 38.7426 116.465 38.7426C117.555 38.7426 118.528 38.9169 119.386 39.2656C120.244 39.5911 120.986 40.0212 121.612 40.5559C122.261 41.0906 122.783 41.6601 123.177 42.2646L120.047 45.1938C119.56 44.5195 119.039 43.9964 118.482 43.6246C117.926 43.2294 117.276 43.0318 116.535 43.0318C115.746 43.0318 115.086 43.2642 114.553 43.7292C114.019 44.1943 113.753 44.7754 113.753 45.4728C113.753 46.1236 113.892 46.6816 114.17 47.1467C114.448 47.5882 114.831 48.1 115.318 48.681L128.636 63.641H123.246ZM115.074 63.9897C113.405 63.9897 111.945 63.6641 110.693 63.0133C109.464 62.3625 108.502 61.479 107.807 60.3631C107.134 59.2241 106.798 57.9338 106.798 56.4923C106.798 55.0046 107.192 53.6677 107.98 52.482C108.792 51.2964 109.986 50.3318 111.562 49.5877L113.614 52.5169C112.825 52.8887 112.223 53.3887 111.806 54.0164C111.411 54.621 111.214 55.3764 111.214 56.2831C111.214 56.9805 111.377 57.5964 111.701 58.1313C112.026 58.6426 112.489 59.0497 113.092 59.3518C113.695 59.6308 114.39 59.7702 115.179 59.7702C116.175 59.7702 117.01 59.561 117.682 59.1426C118.354 58.7241 118.888 58.1892 119.282 57.5385L122.342 60.8861C121.878 61.4441 121.276 61.9554 120.534 62.4205C119.792 62.8856 118.957 63.2692 118.03 63.5713C117.103 63.8502 116.118 63.9897 115.074 63.9897ZM140.128 63.9897C138.343 63.9897 136.685 63.6759 135.155 63.0482C133.625 62.3974 132.281 61.5021 131.121 60.3631C129.986 59.2005 129.105 57.8523 128.479 56.3179C127.876 54.7836 127.574 53.1328 127.574 51.3661C127.574 49.5995 127.876 47.9487 128.479 46.4144C129.105 44.88 129.986 43.5432 131.121 42.4041C132.281 41.265 133.614 40.3699 135.121 39.719C136.651 39.068 138.32 38.7426 140.128 38.7426C142.075 38.7426 143.791 39.068 145.275 39.719C146.759 40.3467 148.068 41.2185 149.204 42.3344L146.005 45.5426C145.333 44.7985 144.51 44.2174 143.536 43.799C142.562 43.3805 141.426 43.1713 140.128 43.1713C138.992 43.1713 137.949 43.3689 136.998 43.7641C136.071 44.1359 135.26 44.6939 134.564 45.4379C133.869 46.1585 133.336 47.0303 132.964 48.0533C132.594 49.0528 132.408 50.1574 132.408 51.3661C132.408 52.5984 132.594 53.7143 132.964 54.7138C133.336 55.7133 133.869 56.5851 134.564 57.3292C135.26 58.0498 136.071 58.6077 136.998 59.0031C137.949 59.3984 138.992 59.5959 140.128 59.5959C141.496 59.5959 142.667 59.3867 143.64 58.9682C144.637 58.5497 145.472 57.9569 146.144 57.1897L149.343 60.3979C148.207 61.5369 146.886 62.4205 145.379 63.0482C143.872 63.6759 142.122 63.9897 140.128 63.9897ZM159.596 63.9897C157.904 63.9897 156.374 63.6061 155.006 62.839C153.662 62.0487 152.584 60.9908 151.772 59.6656C150.984 58.3174 150.59 56.8179 150.59 55.1672C150.59 53.5164 150.984 52.0405 151.772 50.7385C152.561 49.4133 153.639 48.3672 155.006 47.6C156.374 46.8097 157.892 46.4144 159.562 46.4144C161.277 46.4144 162.807 46.8097 164.152 47.6C165.52 48.3672 166.598 49.4133 167.386 50.7385C168.174 52.0405 168.568 53.5164 168.568 55.1672C168.568 56.8179 168.174 58.3174 167.386 59.6656C166.598 60.9908 165.52 62.0487 164.152 62.839C162.807 63.6061 161.289 63.9897 159.596 63.9897ZM159.562 59.7354C160.42 59.7354 161.173 59.5492 161.822 59.1774C162.494 58.7821 163.004 58.2477 163.352 57.5733C163.723 56.8759 163.908 56.0856 163.908 55.202C163.908 54.3185 163.723 53.54 163.352 52.8656C162.981 52.1913 162.471 51.6682 161.822 51.2964C161.173 50.901 160.42 50.7036 159.562 50.7036C158.727 50.7036 157.986 50.901 157.336 51.2964C156.687 51.6682 156.177 52.1913 155.806 52.8656C155.435 53.54 155.25 54.3185 155.25 55.202C155.25 56.0856 155.435 56.8759 155.806 57.5733C156.177 58.2477 156.687 58.7821 157.336 59.1774C157.986 59.5492 158.727 59.7354 159.562 59.7354Z" fill="#F7F6F5"/>
<path d="M177.132 63.641C179.412 63.641 181.261 61.787 181.261 59.5C181.261 57.2129 179.412 55.3589 177.132 55.3589C174.851 55.3589 173.002 57.2129 173.002 59.5C173.002 61.787 174.851 63.641 177.132 63.641Z" fill="#1170EA"/>
</svg>
