<svg width="68" height="68" viewBox="0 0 68 68" fill="none" xmlns="http://www.w3.org/2000/svg">
<circle cx="34" cy="34" r="34" fill="#1170EA"/>
<g clip-path="url(#clip0_385_184)">
<path d="M19.129 12.9281H12.2082C11.2004 12.9281 10.3833 13.7443 10.3833 14.7511V42.595C10.3833 43.6018 11.2004 44.418 12.2082 44.418H19.129C20.1369 44.418 20.9539 43.6018 20.9539 42.595V14.7511C20.9539 13.7443 20.1369 12.9281 19.129 12.9281Z" fill="#DBE9FE"/>
<path d="M29.7942 44.418H22.779C21.7712 44.418 20.9541 45.2342 20.9541 46.241V53.2488C20.9541 54.2556 21.7712 55.0718 22.779 55.0718H29.7942C30.8021 55.0718 31.6191 54.2556 31.6191 53.2488V46.241C31.6191 45.2342 30.8021 44.418 29.7942 44.418Z" fill="#DBE9FE"/>
<path d="M29.7942 23.299H22.779C21.7712 23.299 20.9541 24.1152 20.9541 25.1221V32.1298C20.9541 33.1366 21.7712 33.9528 22.779 33.9528H29.7942C30.8021 33.9528 31.6191 33.1366 31.6191 32.1298V25.1221C31.6191 24.1152 30.8021 23.299 29.7942 23.299Z" fill="#DBE9FE"/>
<path d="M20.907 43.1453L21.0256 43.4414C21.1339 43.7119 21.3018 43.9546 21.5167 44.1513C21.6726 44.2943 21.869 44.3856 22.0789 44.4129L22.3226 44.4445L21.0013 45.7851L20.9361 45.3292C20.9174 45.1979 20.8505 45.0781 20.7484 44.9932L20.6804 44.9365C20.4553 44.7492 20.2021 44.5984 19.9301 44.4897L19.6328 44.3709L20.907 43.1453Z" fill="#DBE9FE"/>
<path d="M19.2549 33.2971L21.4691 31.6901L22.6998 33.9528L22.2491 34.0696C21.7188 34.2069 21.2577 34.5345 20.9537 34.99L19.2549 33.2971Z" fill="#DBE9FE"/>
<path d="M21.6413 25.4675L19.1606 24.3121L20.9539 22.0452L20.9676 22.074C21.2724 22.7156 21.8617 23.1764 22.5583 23.318L21.6413 25.4675Z" fill="#DBE9FE"/>
<path d="M45.3669 34.2357H38.3518C37.3439 34.2357 36.5269 35.0518 36.5269 36.0587V53.0603C36.5269 54.0671 37.3439 54.8833 38.3518 54.8833H45.3669C46.3748 54.8833 47.1919 54.0671 47.1919 53.0603V36.0587C47.1919 35.0518 46.3748 34.2357 45.3669 34.2357Z" fill="#DBE9FE"/>
<path d="M48.4762 34.4823L48.1385 34.574C47.8362 34.6561 47.5575 34.808 47.3248 35.0175C47.1567 35.1688 47.0415 35.3699 46.9962 35.5913L46.9411 35.8607L45.5737 34.237L46.0903 34.2255C46.228 34.2225 46.3593 34.1666 46.457 34.0696L46.538 33.9889C46.7552 33.7732 46.9352 33.5231 47.071 33.2489L47.2312 32.9254L48.4762 34.4823Z" fill="#DBE9FE"/>
<path d="M55.7488 24.1476H48.7336C47.7257 24.1476 46.9087 24.9637 46.9087 25.9706V32.9783C46.9087 33.9851 47.7257 34.8013 48.7336 34.8013H55.7488C56.7566 34.8013 57.5737 33.9851 57.5737 32.9783V25.9706C57.5737 24.9637 56.7566 24.1476 55.7488 24.1476Z" fill="#DBE9FE"/>
</g>
<defs>
<clipPath id="clip0_385_184">
<rect width="47.2335" height="42.1437" fill="white" transform="translate(10.3833 12.9281)"/>
</clipPath>
</defs>
</svg>
