<svg width="421" height="156" viewBox="0 0 421 156" fill="none" xmlns="http://www.w3.org/2000/svg">
<circle cx="77" cy="79" r="77" fill="#1170EA"/>
<g clip-path="url(#clip0_35_273)">
<path d="M43.3213 31.2784H27.6478C25.3653 31.2784 23.5149 33.1269 23.5149 35.407V98.4653C23.5149 100.745 25.3653 102.594 27.6478 102.594H43.3213C45.6039 102.594 47.4543 100.745 47.4543 98.4653V35.407C47.4543 33.1269 45.6039 31.2784 43.3213 31.2784Z" fill="#DBE9FE"/>
<path d="M67.4745 102.594H51.5873C49.3047 102.594 47.4543 104.442 47.4543 106.722V122.593C47.4543 124.873 49.3047 126.722 51.5873 126.722H67.4745C69.7571 126.722 71.6075 124.873 71.6075 122.593V106.722C71.6075 104.442 69.7571 102.594 67.4745 102.594Z" fill="#DBE9FE"/>
<path d="M67.4745 54.7655H51.5873C49.3047 54.7655 47.4543 56.6139 47.4543 58.8941V74.7646C47.4543 77.0448 49.3047 78.8932 51.5873 78.8932H67.4745C69.7571 78.8932 71.6075 77.0448 71.6075 74.7646V58.8941C71.6075 56.6139 69.7571 54.7655 67.4745 54.7655Z" fill="#DBE9FE"/>
<path d="M47.3475 99.7114L47.6161 100.382C47.8613 100.995 48.2416 101.544 48.7283 101.99C49.0815 102.314 49.5262 102.52 50.0015 102.582L50.5536 102.654L47.5612 105.69L47.4136 104.657C47.371 104.36 47.2195 104.089 46.9884 103.896L46.8343 103.768C46.3246 103.344 45.7512 103.002 45.1352 102.756L44.4619 102.487L47.3475 99.7114Z" fill="#DBE9FE"/>
<path d="M43.6069 77.4083L48.6216 73.7688L51.4086 78.8931L50.3881 79.1576C49.1871 79.4687 48.1427 80.2106 47.4544 81.242L43.6069 77.4083Z" fill="#DBE9FE"/>
<path d="M49.0109 59.6766L43.3931 57.0598L47.4542 51.926L47.4852 51.9913C48.1756 53.4442 49.5103 54.4878 51.0878 54.8085L49.0109 59.6766Z" fill="#DBE9FE"/>
<path d="M102.742 79.5338H86.8551C84.5725 79.5338 82.7222 81.3822 82.7222 83.6624V122.166C82.7222 124.446 84.5725 126.295 86.8551 126.295H102.742C105.025 126.295 106.875 124.446 106.875 122.166V83.6624C106.875 81.3822 105.025 79.5338 102.742 79.5338Z" fill="#DBE9FE"/>
<path d="M109.784 80.0923L109.019 80.3C108.334 80.486 107.703 80.8299 107.176 81.3044C106.795 81.6471 106.535 82.1025 106.432 82.604L106.307 83.214L103.21 79.5367L104.38 79.5107C104.692 79.5039 104.99 79.3774 105.211 79.1576L105.394 78.9749C105.886 78.4863 106.294 77.92 106.601 77.299L106.964 76.5663L109.784 80.0923Z" fill="#DBE9FE"/>
<path d="M126.254 56.6873H110.367C108.084 56.6873 106.234 58.5357 106.234 60.8158V76.6864C106.234 78.9665 108.084 80.8149 110.367 80.8149H126.254C128.537 80.8149 130.387 78.9665 130.387 76.6864V60.8158C130.387 58.5357 128.537 56.6873 126.254 56.6873Z" fill="#DBE9FE"/>
</g>
<path d="M195.024 70V14.96H205.984V70H195.024ZM177.104 23.44V13.76H223.904V23.44H177.104ZM238.847 70.8C234.954 70.8 231.434 69.92 228.287 68.16C225.194 66.3467 222.714 63.92 220.847 60.88C219.034 57.7867 218.127 54.3467 218.127 50.56C218.127 46.7733 219.034 43.3867 220.847 40.4C222.66 37.36 225.14 34.96 228.287 33.2C231.434 31.3867 234.927 30.48 238.767 30.48C242.714 30.48 246.234 31.3867 249.327 33.2C252.474 34.96 254.954 37.36 256.767 40.4C258.58 43.3867 259.487 46.7733 259.487 50.56C259.487 54.3467 258.58 57.7867 256.767 60.88C254.954 63.92 252.474 66.3467 249.327 68.16C246.234 69.92 242.74 70.8 238.847 70.8ZM238.767 61.04C240.74 61.04 242.474 60.6133 243.967 59.76C245.514 58.8533 246.687 57.6267 247.487 56.08C248.34 54.48 248.767 52.6667 248.767 50.64C248.767 48.6133 248.34 46.8267 247.487 45.28C246.634 43.7333 245.46 42.5333 243.967 41.68C242.474 40.7733 240.74 40.32 238.767 40.32C236.847 40.32 235.14 40.7733 233.647 41.68C232.154 42.5333 230.98 43.7333 230.127 45.28C229.274 46.8267 228.847 48.6133 228.847 50.64C228.847 52.6667 229.274 54.48 230.127 56.08C230.98 57.6267 232.154 58.8533 233.647 59.76C235.14 60.6133 236.847 61.04 238.767 61.04ZM275.354 46.48V38H288.394C291.06 38 293.114 37.3333 294.554 36C296.047 34.6133 296.794 32.72 296.794 30.32C296.794 28.1333 296.047 26.32 294.554 24.88C293.114 23.3867 291.06 22.64 288.394 22.64H275.354V13.76H289.354C292.98 13.76 296.154 14.48 298.874 15.92C301.647 17.3067 303.78 19.2267 305.274 21.68C306.82 24.1333 307.594 26.96 307.594 30.16C307.594 33.4667 306.82 36.3467 305.274 38.8C303.78 41.2 301.647 43.0933 298.874 44.48C296.1 45.8133 292.874 46.48 289.194 46.48H275.354ZM267.354 70V13.76H278.234V70H267.354ZM298.074 70L279.514 45.68L289.514 42.56L311.274 70H298.074ZM333.698 70.8C329.645 70.8 326.045 69.9467 322.898 68.24C319.751 66.48 317.245 64.08 315.378 61.04C313.565 58 312.658 54.5333 312.658 50.64C312.658 46.8 313.538 43.3867 315.298 40.4C317.111 37.36 319.565 34.96 322.658 33.2C325.751 31.3867 329.191 30.48 332.978 30.48C336.711 30.48 339.991 31.3333 342.818 33.04C345.698 34.6933 347.938 36.9867 349.538 39.92C351.191 42.8 352.018 46.08 352.018 49.76C352.018 50.4533 351.965 51.1733 351.858 51.92C351.805 52.6133 351.671 53.4133 351.458 54.32L318.978 54.4V46.56L346.578 46.48L342.338 49.76C342.231 47.4667 341.805 45.5467 341.058 44C340.365 42.4533 339.325 41.28 337.938 40.48C336.605 39.6267 334.951 39.2 332.978 39.2C330.898 39.2 329.085 39.68 327.538 40.64C325.991 41.5467 324.791 42.8533 323.938 44.56C323.138 46.2133 322.738 48.1867 322.738 50.48C322.738 52.8267 323.165 54.88 324.018 56.64C324.925 58.3467 326.205 59.68 327.858 60.64C329.511 61.5467 331.431 62 333.618 62C335.591 62 337.378 61.68 338.978 61.04C340.578 60.3467 341.965 59.3333 343.138 58L349.298 64.16C347.431 66.3467 345.138 68 342.418 69.12C339.751 70.24 336.845 70.8 333.698 70.8ZM374.659 70.8C371.139 70.8 367.966 69.92 365.139 68.16C362.313 66.4 360.099 64 358.499 60.96C356.899 57.92 356.099 54.5067 356.099 50.72C356.099 46.88 356.899 43.44 358.499 40.4C360.099 37.36 362.313 34.96 365.139 33.2C367.966 31.44 371.139 30.56 374.659 30.56C377.433 30.56 379.913 31.12 382.099 32.24C384.286 33.36 386.019 34.9333 387.299 36.96C388.633 38.9333 389.353 41.1733 389.459 43.68V57.6C389.353 60.16 388.633 62.4267 387.299 64.4C386.019 66.3733 384.286 67.9467 382.099 69.12C379.913 70.24 377.433 70.8 374.659 70.8ZM376.579 61.12C379.513 61.12 381.886 60.16 383.699 58.24C385.513 56.2667 386.419 53.7333 386.419 50.64C386.419 48.6133 385.993 46.8267 385.139 45.28C384.339 43.68 383.193 42.4533 381.699 41.6C380.259 40.6933 378.553 40.24 376.579 40.24C374.659 40.24 372.953 40.6933 371.459 41.6C370.019 42.4533 368.873 43.68 368.019 45.28C367.219 46.8267 366.819 48.6133 366.819 50.64C366.819 52.72 367.219 54.56 368.019 56.16C368.873 57.7067 370.019 58.9333 371.459 59.84C372.953 60.6933 374.659 61.12 376.579 61.12ZM385.859 70V59.6L387.539 50.16L385.859 40.88V31.36H396.259V70H385.859ZM405.531 70V12.16H416.011V70H405.531Z" fill="#041136"/>
<path d="M283.534 146L257.294 117.2C255.32 115.013 253.854 112.933 252.894 110.96C251.934 108.933 251.454 106.72 251.454 104.32C251.454 101.493 252.147 98.9067 253.534 96.56C254.974 94.2133 256.92 92.3467 259.374 90.96C261.88 89.5733 264.734 88.88 267.934 88.88C270.44 88.88 272.68 89.28 274.654 90.08C276.627 90.8267 278.334 91.8133 279.774 93.04C281.267 94.2667 282.467 95.5733 283.374 96.96L276.174 103.68C275.054 102.133 273.854 100.933 272.574 100.08C271.294 99.1733 269.8 98.72 268.094 98.72C266.28 98.72 264.76 99.2533 263.534 100.32C262.307 101.387 261.694 102.72 261.694 104.32C261.694 105.813 262.014 107.093 262.654 108.16C263.294 109.173 264.174 110.347 265.294 111.68L295.934 146H283.534ZM264.734 146.8C260.894 146.8 257.534 146.053 254.654 144.56C251.827 143.067 249.614 141.04 248.014 138.48C246.467 135.867 245.694 132.907 245.694 129.6C245.694 126.187 246.6 123.12 248.414 120.4C250.28 117.68 253.027 115.467 256.654 113.76L261.374 120.48C259.56 121.333 258.174 122.48 257.214 123.92C256.307 125.307 255.854 127.04 255.854 129.12C255.854 130.72 256.227 132.133 256.974 133.36C257.72 134.533 258.787 135.467 260.174 136.16C261.56 136.8 263.16 137.12 264.974 137.12C267.267 137.12 269.187 136.64 270.734 135.68C272.28 134.72 273.507 133.493 274.414 132L281.454 139.68C280.387 140.96 279 142.133 277.294 143.2C275.587 144.267 273.667 145.147 271.534 145.84C269.4 146.48 267.134 146.8 264.734 146.8ZM322.371 146.8C318.265 146.8 314.451 146.08 310.931 144.64C307.411 143.147 304.318 141.093 301.651 138.48C299.038 135.813 297.011 132.72 295.571 129.2C294.185 125.68 293.491 121.893 293.491 117.84C293.491 113.787 294.185 110 295.571 106.48C297.011 102.96 299.038 99.8933 301.651 97.28C304.318 94.6667 307.385 92.6133 310.851 91.12C314.371 89.6267 318.211 88.88 322.371 88.88C326.851 88.88 330.798 89.6267 334.211 91.12C337.625 92.56 340.638 94.56 343.251 97.12L335.891 104.48C334.345 102.773 332.451 101.44 330.211 100.48C327.971 99.52 325.358 99.04 322.371 99.04C319.758 99.04 317.358 99.4933 315.171 100.4C313.038 101.253 311.171 102.533 309.571 104.24C307.971 105.893 306.745 107.893 305.891 110.24C305.038 112.533 304.611 115.067 304.611 117.84C304.611 120.667 305.038 123.227 305.891 125.52C306.745 127.813 307.971 129.813 309.571 131.52C311.171 133.173 313.038 134.453 315.171 135.36C317.358 136.267 319.758 136.72 322.371 136.72C325.518 136.72 328.211 136.24 330.451 135.28C332.745 134.32 334.665 132.96 336.211 131.2L343.571 138.56C340.958 141.173 337.918 143.2 334.451 144.64C330.985 146.08 326.958 146.8 322.371 146.8ZM367.159 146.8C363.266 146.8 359.746 145.92 356.599 144.16C353.506 142.347 351.026 139.92 349.159 136.88C347.346 133.787 346.439 130.347 346.439 126.56C346.439 122.773 347.346 119.387 349.159 116.4C350.973 113.36 353.453 110.96 356.599 109.2C359.746 107.387 363.239 106.48 367.079 106.48C371.026 106.48 374.546 107.387 377.639 109.2C380.786 110.96 383.266 113.36 385.079 116.4C386.893 119.387 387.799 122.773 387.799 126.56C387.799 130.347 386.893 133.787 385.079 136.88C383.266 139.92 380.786 142.347 377.639 144.16C374.546 145.92 371.053 146.8 367.159 146.8ZM367.079 137.04C369.053 137.04 370.786 136.613 372.279 135.76C373.826 134.853 374.999 133.627 375.799 132.08C376.653 130.48 377.079 128.667 377.079 126.64C377.079 124.613 376.653 122.827 375.799 121.28C374.946 119.733 373.773 118.533 372.279 117.68C370.786 116.773 369.053 116.32 367.079 116.32C365.159 116.32 363.453 116.773 361.959 117.68C360.466 118.533 359.293 119.733 358.439 121.28C357.586 122.827 357.159 124.613 357.159 126.64C357.159 128.667 357.586 130.48 358.439 132.08C359.293 133.627 360.466 134.853 361.959 135.76C363.453 136.613 365.159 137.04 367.079 137.04Z" fill="#041136"/>
<circle cx="407.5" cy="136.5" r="9.5" fill="#1170EA"/>
<defs>
<clipPath id="clip0_35_273">
<rect width="106.97" height="95.4431" fill="white" transform="translate(23.5149 31.2784)"/>
</clipPath>
</defs>
</svg>
