<svg width="37" height="37" viewBox="0 0 37 37" fill="none" xmlns="http://www.w3.org/2000/svg">
<path d="M30.9206 30.9209H25.5434V22.5C25.5434 20.4918 25.5076 17.9078 22.7465 17.9078C19.9461 17.9078 19.517 20.0948 19.517 22.3551V30.9209H14.1415V13.6035H19.3042V15.9693H19.3757C20.429 14.1703 22.3853 13.0956 24.4686 13.1725C29.9192 13.1725 30.9224 16.7579 30.9224 21.4199L30.9206 30.9209ZM8.07395 11.2358C6.35007 11.2358 4.95345 9.83919 4.95345 8.11532C4.95345 6.39145 6.35007 4.99482 8.07395 4.99482C9.79782 4.99482 11.1944 6.39145 11.1944 8.11532C11.1944 9.83919 9.79782 11.2358 8.07395 11.2358ZM10.7617 30.9209H5.37905V13.6035H10.7617V30.9209ZM33.6012 0.00203251H2.67701C1.21601 -0.0140617 0.0178825 1.15724 0 2.61824V33.6694C0.0178825 35.1322 1.21601 36.3035 2.67701 36.2874H33.6012C35.0658 36.3053 36.2693 35.134 36.2889 33.6694V2.61645C36.2675 1.15188 35.064 -0.0194266 33.6012 0.000244177" fill="#041136"/>
</svg>
