<svg width="23" height="23" viewBox="0 0 23 23" fill="none" xmlns="http://www.w3.org/2000/svg">
<g clip-path="url(#clip0_293_186)">
<path d="M21.5625 10.0625H12.9375V1.4375C12.9375 0.643596 12.2939 0 11.5 0C10.7061 0 10.0625 0.643596 10.0625 1.4375V10.0625H1.4375C0.643596 10.0625 0 10.7061 0 11.5C0 12.2939 0.643596 12.9375 1.4375 12.9375H10.0625V21.5625C10.0625 22.3564 10.7061 23 11.5 23C12.2939 23 12.9375 22.3564 12.9375 21.5625V12.9375H21.5625C22.3564 12.9375 23 12.2939 23 11.5C23 10.7061 22.3564 10.0625 21.5625 10.0625Z" fill="black"/>
</g>
<defs>
<clipPath id="clip0_293_186">
<rect width="23" height="23" fill="white"/>
</clipPath>
</defs>
</svg>
