<svg width="38" height="36" viewBox="0 0 38 36" fill="none" xmlns="http://www.w3.org/2000/svg">
<rect x="0.289062" width="37" height="36" rx="3" fill="#041136"/>
<g clip-path="url(#clip0_293_268)">
<path fill-rule="evenodd" clip-rule="evenodd" d="M26.7522 9.488C24.5062 7.24 21.5202 6.001 18.3392 6C11.7842 6 6.44919 11.334 6.44619 17.892C6.44519 19.988 6.99319 22.034 8.03419 23.838L6.34619 30L12.6502 28.346C14.3872 29.294 16.3432 29.793 18.3332 29.794H18.3382C24.8922 29.794 30.2282 24.459 30.2312 17.901C30.2332 14.724 28.9972 11.735 26.7522 9.488ZM18.3392 27.785H18.3352C16.5612 27.785 14.8222 27.308 13.3042 26.407L12.9432 26.193L9.20219 27.174L10.2012 23.526L9.96619 23.152C8.97619 21.578 8.45419 19.759 8.45519 17.892C8.45719 12.442 12.8922 8.008 18.3442 8.008C20.9842 8.008 23.4662 9.038 25.3322 10.906C27.1982 12.775 28.2252 15.258 28.2242 17.899C28.2212 23.351 23.7872 27.785 18.3392 27.785ZM23.7612 20.382C23.4642 20.233 22.0032 19.514 21.7302 19.415C21.4582 19.316 21.2602 19.266 21.0612 19.563C20.8622 19.86 20.2942 20.53 20.1202 20.729C19.9472 20.927 19.7732 20.952 19.4762 20.803C19.1792 20.654 18.2212 20.341 17.0862 19.328C16.2032 18.54 15.6062 17.567 15.4332 17.269C15.2602 16.971 15.4152 16.811 15.5632 16.663C15.6972 16.53 15.8602 16.316 16.0092 16.142C16.1592 15.97 16.2082 15.846 16.3082 15.647C16.4072 15.449 16.3582 15.275 16.2832 15.126C16.2082 14.978 15.6142 13.515 15.3672 12.92C15.1262 12.34 14.8812 12.419 14.6982 12.41C14.5252 12.401 14.3272 12.4 14.1282 12.4C13.9302 12.4 13.6082 12.474 13.3362 12.772C13.0642 13.07 12.2962 13.789 12.2962 15.251C12.2962 16.714 13.3612 18.127 13.5092 18.325C13.6572 18.523 15.6042 21.525 18.5852 22.812C19.2942 23.118 19.8482 23.301 20.2792 23.438C20.9912 23.664 21.6392 23.632 22.1512 23.556C22.7222 23.471 23.9092 22.837 24.1572 22.143C24.4052 21.449 24.4052 20.853 24.3302 20.73C24.2562 20.605 24.0582 20.531 23.7612 20.382Z" fill="#F2F2F2"/>
</g>
<defs>
<clipPath id="clip0_293_268">
<rect width="24" height="24" fill="white" transform="translate(6.28906 6)"/>
</clipPath>
</defs>
</svg>
